# xmcd
# 
# Track frame offsets:
#     182
#     51735
#     90810
#     126230
#     165432
# 
# Disc length: 2446
# 
# Revision: 21
# Processed by: cddbd v1.5.2PL0 Copyright (c) Steve Scherf et al.
# Submitted via: fre:ac v1.0.31
# 
DISCID=38098c05
DTITLE=Al Di Meola, John McLaughlin, Paco de Lucia - Friday Night In San Francisco
DYEAR=1981
DGENRE=Jazz Rock, Fusion
TTITLE0=Mediterranean Sundance and Rio Ancho
TTITLE1=Short Tales Of The Black Forest
TTITLE2=Frevo Rasgado
TTITLE3=Fantasia Suite
TTITLE4=Guardian Angel
EXTD=CD 1981, 1983\nCBS, Phonogram, Philips 800 047-2\nLive - 05.12.1980\nWarfield Theatre, San Francisco, USA
EXTT0=
EXTT1=
EXTT2=
EXTT3=
EXTT4=
PLAYORDER=
